<svg width="108" height="18" fill="none" xmlns="http://www.w3.org/2000/svg"><path fill-rule="evenodd" clip-rule="evenodd" d="M103.847 2.6585v14.7913h-2.113V2.6585h-3.7561V1.0151h9.6261v1.6434h-3.757zm-8.1347 8.6987c-.3679.4618-.8296.7905-1.3853.9861-.5556.1957-1.2169.2935-1.9839.2935-.36 0-.7669-.0235-1.2208-.0704-.454-.047-.8296-.1018-1.127-.1644v5.0478h-2.113v-16.2a11.0698 11.0698 0 011.796-.3639c.6027-.0704 1.2561-.1056 1.9605-.1056.9391 0 1.7374.0978 2.3948.2934.6573.1957 1.1895.5205 1.5965.9744.4069.454.7043 1.0565.8922 1.8078.1878.7513.2817 1.6826.2817 2.794 0 1.1425-.09 2.0973-.27 2.8643-.18.7669-.4539 1.3813-.8217 1.843zm-1.1974-6.8204c-.1174-.5635-.3013-1.0096-.5518-1.3383-.2504-.3287-.5674-.5595-.9508-.6926-.3835-.133-.8414-.1995-1.3735-.1995h-1.6435v8.6869h1.6435c.5321 0 .99-.0665 1.3735-.1995.3834-.1331.7004-.364.9508-.6927.2505-.3287.4344-.7747.5518-1.3382.1173-.5635.176-1.2678.176-2.113 0-.8453-.0587-1.5496-.176-2.1131zm-11.9153 8.687H77.904l-1.0565 4.226h-2.1131l3.9913-16.4347h3.0522l3.9913 16.4347h-2.113l-1.0566-4.226zm-2.3008-9.861h-.0939l-1.9487 8.2175h3.9913l-1.9487-8.2174zM70.1562 5.2412h-.1174l-3.4044 10.0957h-2.113L61.117 5.2411h-.1174l-.7043 12.2087h-2.113l.9391-16.4347h2.5826l3.8269 11.2695h.094l3.8269-11.2695h2.5826l.9392 16.4347h-2.1131l-.7043-12.2087zM54.3788 15.9238c-.4383.6417-.9665 1.0956-1.5848 1.3617s-1.3265.3991-2.1248.3991-1.5065-.133-2.1248-.3991c-.6182-.2661-1.1465-.72-1.5848-1.3617-.4382-.6418-.7708-1.5066-.9978-2.5944-.2269-1.0878-.3404-2.4535-.3404-4.097 0-1.6434.1135-3.009.3404-4.097.227-1.0877.5596-1.9525.9978-2.5943.4383-.6417.9666-1.0956 1.5848-1.3617.6183-.266 1.3265-.3991 2.1248-.3991s1.5065.133 2.1248.3991c.6183.266 1.1465.72 1.5848 1.3617.4382.6418.7708 1.5066.9978 2.5944.227 1.0878.3404 2.4535.3404 4.097 0 1.6434-.1134 3.0091-.3404 4.0969-.227 1.0878-.5596 1.9526-.9978 2.5944zM53.3575 5.7577c-.1644-.9079-.3796-1.6279-.6457-2.16-.2661-.5322-.5791-.9-.9391-1.1035-.36-.2035-.7278-.3052-1.1035-.3052-.3756 0-.7435.1017-1.1035.3052-.36.2035-.673.5713-.9391 1.1035-.2661.5321-.4813 1.2521-.6457 2.16-.1643.9078-.2465 2.066-.2465 3.4748 0 1.4086.0822 2.5669.2465 3.4747.1644.9079.3796 1.6279.6457 2.16.2661.5322.5791.9.9391 1.1035.36.2035.7279.3052 1.1035.3052.3757 0 .7435-.1017 1.1035-.3052.36-.2035.673-.5713.9391-1.1035.2661-.5321.4813-1.2521.6457-2.16.1643-.9078.2465-2.0661.2465-3.4748 0-1.4086-.0822-2.567-.2465-3.4747zM40.6909 9.9368h-4.9304v7.513h-2.113V1.0151h2.113v7.2782h4.9304V1.0151h2.1131v16.4347h-2.1131v-7.513zm-11.1513 7.513l-2.9348-7.0434-2.9348 7.0434h-2.1131l3.5218-8.4521-3.1696-7.9826h2.1131l2.5826 6.5739 2.5826-6.574h2.113l-3.1695 7.9827 3.5217 8.4521h-2.113zM12.283 1.0151h7.9826v1.6434h-5.8695v5.4h5.1652V9.702h-5.1652v6.1044h5.8695v1.6434H12.283V1.0151zM6.6483 17.4498h-2.113V2.6585H.7786V1.0151h9.6261v1.6434H6.6483v14.7913z" fill="#fff"/></svg>